<svg width="248" height="148" viewBox="0 0 248 148" fill="none" xmlns="http://www.w3.org/2000/svg">
<rect x="1" y="1" width="246" height="146" rx="24" fill="white" fill-opacity="0.8" stroke="#43A05A" stroke-width="2"/>
<path d="M83.9254 103.351V83.7147H86.8402V86.6806H87.0447C87.4027 85.709 88.0504 84.9207 88.9879 84.3156C89.9254 83.7104 90.9822 83.4079 92.1584 83.4079C92.38 83.4079 92.657 83.4122 92.9893 83.4207C93.3217 83.4292 93.5732 83.442 93.7436 83.459V86.5272C93.6413 86.5016 93.407 86.4633 93.0405 86.4122C92.6825 86.3525 92.3033 86.3227 91.9027 86.3227C90.9482 86.3227 90.0959 86.5229 89.3459 86.9235C88.6044 87.3156 88.0163 87.861 87.5817 88.5599C87.1555 89.2502 86.9425 90.0386 86.9425 90.9249V103.351H83.9254ZM103.098 103.811C101.854 103.811 100.725 103.577 99.7106 103.108C98.6964 102.631 97.891 101.945 97.2944 101.05C96.6978 100.147 96.3995 99.0556 96.3995 97.7772C96.3995 96.6522 96.6211 95.7403 97.0643 95.0414C97.5075 94.334 98.0998 93.7801 98.8413 93.3795C99.5827 92.9789 100.401 92.6806 101.296 92.4846C102.199 92.2801 103.107 92.1181 104.019 91.9988C105.212 91.8454 106.179 91.7303 106.921 91.6536C107.671 91.5684 108.216 91.4278 108.557 91.2318C108.907 91.0357 109.081 90.6948 109.081 90.209V90.1068C109.081 88.8454 108.736 87.8653 108.046 87.1664C107.364 86.4676 106.328 86.1181 104.939 86.1181C103.499 86.1181 102.37 86.4335 101.551 87.0641C100.733 87.6948 100.158 88.3681 99.8256 89.084L96.962 88.0613C97.4734 86.8681 98.1552 85.9391 99.0075 85.2744C99.8683 84.6011 100.806 84.1323 101.82 83.8681C102.843 83.5954 103.848 83.459 104.837 83.459C105.468 83.459 106.192 83.5357 107.01 83.6891C107.837 83.834 108.634 84.1366 109.401 84.5968C110.176 85.057 110.82 85.7516 111.331 86.6806C111.843 87.6096 112.098 88.8539 112.098 90.4136V103.351H109.081V100.692H108.928C108.723 101.118 108.382 101.574 107.905 102.06C107.428 102.546 106.793 102.959 106 103.3C105.208 103.641 104.24 103.811 103.098 103.811ZM103.559 101.101C104.752 101.101 105.757 100.867 106.576 100.398C107.402 99.9292 108.025 99.3241 108.442 98.5826C108.868 97.8411 109.081 97.0613 109.081 96.2431V93.4818C108.953 93.6352 108.672 93.7758 108.238 93.9036C107.811 94.0229 107.317 94.1295 106.755 94.2232C106.201 94.3085 105.659 94.3852 105.131 94.4533C104.611 94.513 104.189 94.5641 103.865 94.6068C103.081 94.709 102.348 94.8752 101.667 95.1053C100.993 95.3269 100.448 95.6636 100.03 96.1153C99.6211 96.5585 99.4165 97.1636 99.4165 97.9306C99.4165 98.9789 99.8043 99.7715 100.58 100.308C101.364 100.837 102.357 101.101 103.559 101.101ZM132.959 83.7147L125.697 103.351H122.629L115.368 83.7147H118.641L124.061 99.3624H124.266L129.686 83.7147H132.959ZM144.471 103.76C142.579 103.76 140.947 103.343 139.575 102.507C138.211 101.664 137.158 100.487 136.417 98.9789C135.684 97.4619 135.317 95.6977 135.317 93.6863C135.317 91.6749 135.684 89.9022 136.417 88.3681C137.158 86.8255 138.19 85.6238 139.511 84.763C140.84 83.8937 142.391 83.459 144.164 83.459C145.187 83.459 146.197 83.6295 147.194 83.9704C148.191 84.3113 149.099 84.8653 149.917 85.6323C150.735 86.3908 151.387 87.3965 151.873 88.6494C152.359 89.9022 152.602 91.4448 152.602 93.2772V94.5556H137.465V91.9477H149.533C149.533 90.8397 149.312 89.8511 148.869 88.9818C148.434 88.1124 147.812 87.4264 147.002 86.9235C146.201 86.4207 145.255 86.1693 144.164 86.1693C142.962 86.1693 141.923 86.4676 141.045 87.0641C140.175 87.6522 139.506 88.4193 139.038 89.3653C138.569 90.3113 138.335 91.3255 138.335 92.4079V94.1465C138.335 95.6295 138.59 96.8866 139.102 97.9178C139.621 98.9406 140.342 99.7204 141.262 100.257C142.183 100.786 143.252 101.05 144.471 101.05C145.263 101.05 145.979 100.939 146.619 100.718C147.266 100.487 147.825 100.147 148.293 99.6948C148.762 99.2346 149.124 98.6636 149.38 97.9818L152.295 98.7999C151.988 99.7886 151.472 100.658 150.748 101.408C150.023 102.149 149.129 102.729 148.063 103.147C146.998 103.556 145.8 103.76 144.471 103.76ZM160.208 77.1693V103.351H157.191V77.1693H160.208Z" fill="#292F33"/>
<path d="M39.457 35.5874L157.744 35.5874C161.211 35.5874 164.021 38.3975 164.021 41.8639V41.8639C164.021 44.637 161.773 46.8851 158.999 46.8851L50.7547 46.8851C44.5152 46.8851 39.457 41.827 39.457 35.5874V35.5874Z" fill="#43A05A"/>
<path d="M61.4395 46.8853H72.7122V104.527H61.4395V46.8853Z" fill="#43A05A"/>
</svg>
