<svg width="116" height="70" viewBox="0 0 116 70" fill="none" xmlns="http://www.w3.org/2000/svg">
<rect x="1" y="1" width="114" height="68" rx="14" fill="white" fill-opacity="0.8" stroke="#43A05A" stroke-width="2"/>
<path d="M39.1941 47.3281V38.6009H40.4895V39.919H40.5804C40.7395 39.4872 41.0274 39.1368 41.4441 38.8679C41.8607 38.599 42.3304 38.4645 42.8532 38.4645C42.9516 38.4645 43.0748 38.4664 43.2225 38.4702C43.3702 38.474 43.4819 38.4796 43.5577 38.4872V39.8509C43.5123 39.8395 43.4081 39.8224 43.2452 39.7997C43.0861 39.7732 42.9176 39.7599 42.7395 39.7599C42.3153 39.7599 41.9365 39.849 41.6032 40.027C41.2736 40.2012 41.0123 40.4437 40.8191 40.7543C40.6297 41.0611 40.535 41.4115 40.535 41.8054V47.3281H39.1941ZM47.7154 47.5327C47.1623 47.5327 46.6605 47.4285 46.2097 47.2202C45.7589 47.008 45.401 46.7031 45.1358 46.3054C44.8707 45.9039 44.7381 45.419 44.7381 44.8509C44.7381 44.3509 44.8366 43.9455 45.0336 43.6349C45.2305 43.3205 45.4938 43.0743 45.8233 42.8963C46.1529 42.7183 46.5165 42.5857 46.9142 42.4986C47.3158 42.4077 47.7192 42.3357 48.1245 42.2827C48.6548 42.2145 49.0847 42.1634 49.4142 42.1293C49.7476 42.0914 49.99 42.0289 50.1415 41.9418C50.2968 41.8546 50.3745 41.7031 50.3745 41.4872V41.4418C50.3745 40.8812 50.2211 40.4455 49.9142 40.1349C49.6112 39.8243 49.151 39.669 48.5336 39.669C47.8934 39.669 47.3915 39.8092 47.0279 40.0895C46.6642 40.3698 46.4086 40.669 46.2608 40.9872L44.9881 40.5327C45.2154 40.0024 45.5184 39.5895 45.8972 39.294C46.2798 38.9948 46.6964 38.7865 47.1472 38.669C47.6017 38.5478 48.0487 38.4872 48.4881 38.4872C48.7684 38.4872 49.0904 38.5213 49.454 38.5895C49.8214 38.6539 50.1756 38.7884 50.5165 38.9929C50.8612 39.1974 51.1472 39.5062 51.3745 39.919C51.6017 40.3319 51.7154 40.8849 51.7154 41.5781V47.3281H50.3745V46.1463H50.3063C50.2154 46.3357 50.0639 46.5384 49.8517 46.7543C49.6396 46.9702 49.3574 47.1539 49.0051 47.3054C48.6529 47.4569 48.223 47.5327 47.7154 47.5327ZM47.9199 46.3281C48.4502 46.3281 48.8972 46.224 49.2608 46.0156C49.6283 45.8073 49.9048 45.5384 50.0904 45.2088C50.2798 44.8793 50.3745 44.5327 50.3745 44.169V42.9418C50.3176 43.0099 50.1926 43.0724 49.9995 43.1293C49.8101 43.1823 49.5904 43.2296 49.3404 43.2713C49.0942 43.3092 48.8536 43.3433 48.6188 43.3736C48.3877 43.4001 48.2002 43.4228 48.0563 43.4418C47.7078 43.4872 47.382 43.5611 47.079 43.6634C46.7798 43.7618 46.5373 43.9115 46.3517 44.1122C46.1699 44.3092 46.079 44.5781 46.079 44.919C46.079 45.3849 46.2514 45.7372 46.5961 45.9759C46.9445 46.2107 47.3858 46.3281 47.9199 46.3281ZM60.9867 38.6009L57.7594 47.3281H56.3958L53.1685 38.6009H54.623L57.0321 45.5554H57.123L59.5321 38.6009H60.9867ZM66.1032 47.5099C65.2623 47.5099 64.5369 47.3243 63.927 46.9531C63.321 46.5781 62.8532 46.0554 62.5236 45.3849C62.1979 44.7107 62.035 43.9266 62.035 43.0327C62.035 42.1387 62.1979 41.3509 62.5236 40.669C62.8532 39.9834 63.3115 39.4493 63.8986 39.0668C64.4895 38.6804 65.1789 38.4872 65.9668 38.4872C66.4213 38.4872 66.8702 38.563 67.3134 38.7145C67.7566 38.866 68.16 39.1122 68.5236 39.4531C68.8873 39.7902 69.177 40.2372 69.3929 40.794C69.6088 41.3509 69.7168 42.0365 69.7168 42.8509V43.419H62.9895V42.2599H68.3532C68.3532 41.7675 68.2547 41.3281 68.0577 40.9418C67.8645 40.5554 67.588 40.2505 67.2282 40.027C66.8721 39.8035 66.4516 39.6918 65.9668 39.6918C65.4327 39.6918 64.9706 39.8243 64.5804 40.0895C64.1941 40.3509 63.8967 40.6918 63.6884 41.1122C63.4801 41.5327 63.3759 41.9834 63.3759 42.4645V43.2372C63.3759 43.8963 63.4895 44.455 63.7168 44.9134C63.9479 45.3679 64.2679 45.7145 64.677 45.9531C65.0861 46.188 65.5615 46.3054 66.1032 46.3054C66.4554 46.3054 66.7736 46.2562 67.0577 46.1577C67.3456 46.0554 67.5937 45.9039 67.802 45.7031C68.0104 45.4986 68.1713 45.2448 68.285 44.9418L69.5804 45.3054C69.4441 45.7448 69.2149 46.1312 68.8929 46.4645C68.571 46.794 68.1732 47.0516 67.6998 47.2372C67.2263 47.419 66.6941 47.5099 66.1032 47.5099ZM73.0975 35.6918V47.3281H71.7566V35.6918H73.0975Z" fill="#292F33"/>
<path d="M18.459 16.8318L73.754 16.8318C75.3935 16.8318 76.7226 18.1609 76.7226 19.8004V19.8004C76.7226 21.112 75.6593 22.1753 74.3477 22.1753L23.8025 22.1753C20.8514 22.1753 18.459 19.7829 18.459 16.8318V16.8318Z" fill="#43A05A"/>
<path d="M28.7402 22.1755H34.013V49.4384H28.7402V22.1755Z" fill="#43A05A"/>
</svg>
