<svg width="248" height="148" viewBox="0 0 248 148" fill="none" xmlns="http://www.w3.org/2000/svg">
<rect x="1" y="1.32727" width="246" height="145.673" rx="34" fill="white" fill-opacity="0.8" stroke="#3F8AE2" stroke-width="2"/>
<path d="M83.9254 103.527V83.8909H86.8402V86.8568H87.0447C87.4027 85.8852 88.0504 85.0968 88.9879 84.4917C89.9254 83.8866 90.9822 83.584 92.1584 83.584C92.38 83.584 92.657 83.5883 92.9893 83.5968C93.3217 83.6053 93.5732 83.6181 93.7436 83.6352V86.7034C93.6413 86.6778 93.407 86.6394 93.0405 86.5883C92.6825 86.5286 92.3033 86.4988 91.9027 86.4988C90.9482 86.4988 90.0959 86.6991 89.3459 87.0997C88.6044 87.4917 88.0163 88.0372 87.5817 88.736C87.1555 89.4264 86.9425 90.2147 86.9425 91.1011V103.527H83.9254ZM103.098 103.987C101.854 103.987 100.725 103.753 99.7106 103.284C98.6964 102.807 97.891 102.121 97.2944 101.226C96.6978 100.323 96.3995 99.2318 96.3995 97.9534C96.3995 96.8284 96.6211 95.9164 97.0643 95.2176C97.5075 94.5102 98.0998 93.9562 98.8413 93.5556C99.5827 93.1551 100.401 92.8568 101.296 92.6607C102.199 92.4562 103.107 92.2943 104.019 92.1749C105.212 92.0215 106.179 91.9065 106.921 91.8298C107.671 91.7446 108.216 91.6039 108.557 91.4079C108.907 91.2119 109.081 90.871 109.081 90.3852V90.2829C109.081 89.0215 108.736 88.0414 108.046 87.3426C107.364 86.6437 106.328 86.2943 104.939 86.2943C103.499 86.2943 102.37 86.6096 101.551 87.2403C100.733 87.871 100.158 88.5443 99.8256 89.2602L96.962 88.2374C97.4734 87.0443 98.1552 86.1153 99.0075 85.4505C99.8683 84.7772 100.806 84.3085 101.82 84.0443C102.843 83.7715 103.848 83.6352 104.837 83.6352C105.468 83.6352 106.192 83.7119 107.01 83.8653C107.837 84.0102 108.634 84.3127 109.401 84.773C110.176 85.2332 110.82 85.9278 111.331 86.8568C111.843 87.7857 112.098 89.0301 112.098 90.5897V103.527H109.081V100.868H108.928C108.723 101.294 108.382 101.75 107.905 102.236C107.428 102.722 106.793 103.135 106 103.476C105.208 103.817 104.24 103.987 103.098 103.987ZM103.559 101.277C104.752 101.277 105.757 101.043 106.576 100.574C107.402 100.105 108.025 99.5002 108.442 98.7588C108.868 98.0173 109.081 97.2374 109.081 96.4193V93.6579C108.953 93.8113 108.672 93.9519 108.238 94.0798C107.811 94.1991 107.317 94.3056 106.755 94.3994C106.201 94.4846 105.659 94.5613 105.131 94.6295C104.611 94.6892 104.189 94.7403 103.865 94.7829C103.081 94.8852 102.348 95.0514 101.667 95.2815C100.993 95.5031 100.448 95.8397 100.03 96.2914C99.6211 96.7346 99.4165 97.3397 99.4165 98.1068C99.4165 99.1551 99.8043 99.9477 100.58 100.485C101.364 101.013 102.357 101.277 103.559 101.277ZM132.959 83.8909L125.697 103.527H122.629L115.368 83.8909H118.641L124.061 99.5386H124.266L129.686 83.8909H132.959ZM144.471 103.936C142.579 103.936 140.947 103.519 139.575 102.683C138.211 101.84 137.158 100.664 136.417 99.1551C135.684 97.638 135.317 95.8738 135.317 93.8624C135.317 91.8511 135.684 90.0784 136.417 88.5443C137.158 87.0017 138.19 85.7999 139.511 84.9392C140.84 84.0698 142.391 83.6352 144.164 83.6352C145.187 83.6352 146.197 83.8056 147.194 84.1465C148.191 84.4874 149.099 85.0414 149.917 85.8085C150.735 86.567 151.387 87.5727 151.873 88.8255C152.359 90.0784 152.602 91.621 152.602 93.4534V94.7318H137.465V92.1238H149.533C149.533 91.0159 149.312 90.0272 148.869 89.1579C148.434 88.2886 147.812 87.6025 147.002 87.0997C146.201 86.5968 145.255 86.3454 144.164 86.3454C142.962 86.3454 141.923 86.6437 141.045 87.2403C140.175 87.8284 139.506 88.5954 139.038 89.5414C138.569 90.4874 138.335 91.5017 138.335 92.584V94.3227C138.335 95.8056 138.59 97.0627 139.102 98.094C139.621 99.1167 140.342 99.8965 141.262 100.433C142.183 100.962 143.252 101.226 144.471 101.226C145.263 101.226 145.979 101.115 146.619 100.894C147.266 100.664 147.825 100.323 148.293 99.871C148.762 99.4107 149.124 98.8397 149.38 98.1579L152.295 98.9761C151.988 99.9647 151.472 100.834 150.748 101.584C150.023 102.326 149.129 102.905 148.063 103.323C146.998 103.732 145.8 103.936 144.471 103.936ZM160.208 77.3454V103.527H157.191V77.3454H160.208Z" fill="#292F33"/>
<path d="M39.4561 35.8364L157.757 35.8364C161.216 35.8364 164.02 38.6402 164.02 42.099V42.099C164.02 44.866 161.777 47.1091 159.01 47.1091L50.7288 47.1091C44.503 47.1091 39.4561 42.0621 39.4561 35.8364V35.8364Z" fill="#3F8AE2"/>
<path d="M61.4375 47.1091H72.7102V104.623H61.4375V47.1091Z" fill="#3F8AE2"/>
</svg>
