<svg width="116" height="70" viewBox="0 0 116 70" fill="none" xmlns="http://www.w3.org/2000/svg">
<rect x="0.5" y="1.42725" width="115" height="68.0727" rx="14.5" fill="white" fill-opacity="0.8" stroke="#3F8AE2"/>
<path d="M39.1911 47.8271V39.0999H40.4866V40.4181H40.5775C40.7366 39.9862 41.0245 39.6359 41.4411 39.3669C41.8578 39.098 42.3275 38.9635 42.8502 38.9635C42.9487 38.9635 43.0718 38.9654 43.2195 38.9692C43.3673 38.973 43.479 38.9787 43.5548 38.9862V40.3499C43.5093 40.3385 43.4052 40.3215 43.2423 40.2987C43.0832 40.2722 42.9146 40.259 42.7366 40.259C42.3124 40.259 41.9336 40.348 41.6002 40.526C41.2707 40.7003 41.0093 40.9427 40.8161 41.2533C40.6267 41.5601 40.532 41.9105 40.532 42.3044V47.8271H39.1911ZM47.7124 48.0317C47.1594 48.0317 46.6575 47.9275 46.2068 47.7192C45.756 47.5071 45.3981 47.2021 45.1329 46.8044C44.8677 46.4029 44.7352 45.9181 44.7352 45.3499C44.7352 44.8499 44.8337 44.4446 45.0306 44.134C45.2276 43.8196 45.4909 43.5734 45.8204 43.3953C46.1499 43.2173 46.5136 43.0847 46.9113 42.9976C47.3128 42.9067 47.7162 42.8347 48.1215 42.7817C48.6518 42.7135 49.0818 42.6624 49.4113 42.6283C49.7446 42.5904 49.9871 42.5279 50.1386 42.4408C50.2939 42.3537 50.3715 42.2021 50.3715 41.9862V41.9408C50.3715 41.3802 50.2181 40.9446 49.9113 40.634C49.6083 40.3234 49.1481 40.1681 48.5306 40.1681C47.8905 40.1681 47.3886 40.3082 47.0249 40.5885C46.6613 40.8688 46.4056 41.1681 46.2579 41.4862L44.9852 41.0317C45.2124 40.5014 45.5155 40.0885 45.8943 39.7931C46.2768 39.4938 46.6935 39.2855 47.1443 39.1681C47.5988 39.0468 48.0458 38.9862 48.4852 38.9862C48.7655 38.9862 49.0874 39.0203 49.4511 39.0885C49.8185 39.1529 50.1727 39.2874 50.5136 39.4919C50.8583 39.6965 51.1443 40.0052 51.3715 40.4181C51.5988 40.8309 51.7124 41.384 51.7124 42.0771V47.8271H50.3715V46.6453H50.3034C50.2124 46.8347 50.0609 47.0374 49.8488 47.2533C49.6367 47.4692 49.3545 47.6529 49.0022 47.8044C48.6499 47.9559 48.22 48.0317 47.7124 48.0317ZM47.917 46.8271C48.4473 46.8271 48.8943 46.723 49.2579 46.5146C49.6253 46.3063 49.9018 46.0374 50.0874 45.7078C50.2768 45.3783 50.3715 45.0317 50.3715 44.6681V43.4408C50.3147 43.509 50.1897 43.5715 49.9965 43.6283C49.8071 43.6813 49.5874 43.7287 49.3374 43.7703C49.0912 43.8082 48.8507 43.8423 48.6159 43.8726C48.3848 43.8991 48.1973 43.9218 48.0534 43.9408C47.7049 43.9862 47.3791 44.0601 47.0761 44.1624C46.7768 44.2609 46.5344 44.4105 46.3488 44.6112C46.167 44.8082 46.0761 45.0771 46.0761 45.4181C46.0761 45.884 46.2484 46.2362 46.5931 46.4749C46.9416 46.7097 47.3829 46.8271 47.917 46.8271ZM60.9838 39.0999L57.7565 47.8271H56.3928L53.1656 39.0999H54.6201L57.0292 46.0544H57.1201L59.5292 39.0999H60.9838ZM66.1002 48.009C65.2593 48.009 64.5339 47.8234 63.9241 47.4521C63.318 47.0771 62.8502 46.5544 62.5207 45.884C62.1949 45.2097 62.032 44.4256 62.032 43.5317C62.032 42.6378 62.1949 41.8499 62.5207 41.1681C62.8502 40.4825 63.3086 39.9484 63.8957 39.5658C64.4866 39.1794 65.176 38.9862 65.9639 38.9862C66.4184 38.9862 66.8673 39.062 67.3105 39.2135C67.7536 39.365 68.157 39.6112 68.5207 39.9521C68.8843 40.2893 69.1741 40.7362 69.39 41.2931C69.6059 41.8499 69.7139 42.5355 69.7139 43.3499V43.9181H62.9866V42.759H68.3502C68.3502 42.2665 68.2517 41.8271 68.0548 41.4408C67.8616 41.0544 67.5851 40.7495 67.2252 40.526C66.8692 40.3025 66.4487 40.1908 65.9639 40.1908C65.4298 40.1908 64.9677 40.3234 64.5775 40.5885C64.1911 40.8499 63.8938 41.1908 63.6855 41.6112C63.4771 42.0317 63.373 42.4825 63.373 42.9635V43.7362C63.373 44.3953 63.4866 44.954 63.7139 45.4124C63.9449 45.8669 64.265 46.2135 64.6741 46.4521C65.0832 46.687 65.5586 46.8044 66.1002 46.8044C66.4525 46.8044 66.7707 46.7552 67.0548 46.6567C67.3427 46.5544 67.5908 46.4029 67.7991 46.2021C68.0074 45.9976 68.1684 45.7438 68.282 45.4408L69.5775 45.8044C69.4411 46.2438 69.212 46.6302 68.89 46.9635C68.568 47.2931 68.1703 47.5506 67.6968 47.7362C67.2233 47.9181 66.6911 48.009 66.1002 48.009ZM73.0945 36.1908V47.8271H71.7536V36.1908H73.0945Z" fill="#292F33"/>
<path d="M18.4551 17.5363L73.7894 17.5363C75.4072 17.5363 76.7187 18.8477 76.7187 20.4655V20.4655C76.7187 21.7598 75.6695 22.809 74.3753 22.809L23.7278 22.809C20.8158 22.809 18.4551 20.4483 18.4551 17.5363V17.5363Z" fill="#3F8AE2"/>
<path d="M28.7373 22.809H34.01V49.7106H28.7373V22.809Z" fill="#3F8AE2"/>
</svg>
